<svg id="icons" enable-background="new 0 0 64 64" height="512" viewBox="0 0 64 64" width="512" xmlns="http://www.w3.org/2000/svg"><path d="m59.505 26.99v21c0 2.21-1.78 4-4 4h-11v-5h10v-19h-10v-5h11c2.22 0 4 1.79 4 4z" fill="#da4453"/><path d="m15.505 28.99c1.1 0 2 .899 2 2 0 1.109-.9 2-2 2s-2-.891-2-2c0-1.1.9-2 2-2z" fill="#ffce54"/><path d="m20.005 37.01 2.98 4.59-3.48 5.4v.01h-6z" fill="#545c66"/><path d="m37.505 47v.01h-18v-.01l3.48-5.4 5.52-8.58z" fill="#656d78"/><path d="m44.505 51.99v3.01c0 4.42-3.58 8-8 8h-24c-4.43 0-8.01-3.58-8.01-8v-38.01c0-1.101.899-2 2-2h36.01c1.11 0 2 .899 2 2v6 5 19zm-7-4.98v-.01l-9-13.98-5.52 8.58-2.98-4.59-6.5 10h6zm-20-16.02c0-1.101-.9-2-2-2s-2 .899-2 2c0 1.109.9 2 2 2s2-.89 2-2z" fill="#ed5565"/><path d="m4.494 17.994c-.553 0-1-.447-1-1 0-1.654 1.346-3 3-3 .553 0 1 .447 1 1s-.447 1-1 1c-.552 0-1 .448-1 1 0 .553-.447 1-1 1z"/><path d="m44.503 17.994c-.553 0-1-.447-1-1 0-.552-.448-1-1-1-.553 0-1-.447-1-1s.447-1 1-1c1.654 0 3 1.346 3 3 0 .553-.447 1-1 1z"/><path d="m42.503 15.994h-36.009c-.553 0-1-.447-1-1s.447-1 1-1h36.009c.553 0 1 .447 1 1s-.447 1-1 1z"/><path d="m4.494 55.996c-.553 0-1-.447-1-1v-38.002c0-.553.447-1 1-1s1 .447 1 1v38.002c0 .553-.447 1-1 1z"/><path d="m44.501 55.996c-.553 0-1-.447-1-1v-38.002c0-.553.447-1 1-1s1 .447 1 1v38.002c0 .553-.447 1-1 1z"/><path d="m12.498 64c-4.965 0-9.004-4.039-9.004-9.004 0-.553.447-1 1-1s1 .447 1 1c0 3.862 3.142 7.004 7.004 7.004.553 0 1 .447 1 1s-.447 1-1 1z"/><path d="m36.497 64c-.553 0-1-.447-1-1s.447-1 1-1c3.862 0 7.004-3.142 7.004-7.004 0-.553.447-1 1-1s1 .447 1 1c0 4.965-4.039 9.004-9.004 9.004z"/><path d="m36.497 64h-23.999c-.553 0-1-.447-1-1s.447-1 1-1h23.999c.553 0 1 .447 1 1s-.447 1-1 1z"/><path d="m55.505 23.992h-11.004c-.553 0-1-.447-1-1s.447-1 1-1h11.004c.553 0 1 .447 1 1s-.447 1-1 1z"/><path d="m59.506 27.992c-.553 0-1-.447-1-1 0-1.654-1.346-3-3-3-.553 0-1-.447-1-1s.447-1 1-1c2.757 0 5 2.243 5 5 0 .553-.447 1-1 1z"/><path d="m55.505 52.992h-11.004c-.553 0-1-.447-1-1s.447-1 1-1h11.004c.553 0 1 .447 1 1s-.447 1-1 1z"/><path d="m55.506 52.992c-.553 0-1-.447-1-1s.447-1 1-1c1.654 0 3-1.346 3-3 0-.553.447-1 1-1s1 .447 1 1c0 2.757-2.243 5-5 5z"/><path d="m59.506 48.992c-.553 0-1-.447-1-1v-21c0-.553.447-1 1-1s1 .447 1 1v21c0 .553-.447 1-1 1z"/><path d="m54.504 47.99c-.553 0-1-.447-1-1v-18.996c0-.553.447-1 1-1s1 .447 1 1v18.996c0 .553-.447 1-1 1z"/><path d="m54.504 47.99h-10.003c-.553 0-1-.447-1-1s.447-1 1-1h10.003c.553 0 1 .447 1 1s-.447 1-1 1z"/><path d="m54.504 28.994h-10.003c-.553 0-1-.447-1-1s.447-1 1-1h10.003c.553 0 1 .447 1 1s-.447 1-1 1z"/><path d="m13.511 11.998c-.328 0-.648-.161-.841-.456-.3-.464-.167-1.083.296-1.384.125-.09 1.327-1.061-.3-3.622-2.2-3.465-.766-5.686.3-6.376.463-.299 1.082-.167 1.384.296.296.459.17 1.069-.28 1.373-.153.111-1.334 1.086.284 3.635 2.2 3.463.766 5.684-.3 6.374-.168.108-.357.16-.543.16z"/><path d="m24.505 11.998c-.328 0-.648-.161-.841-.456-.3-.464-.167-1.083.296-1.384.125-.09 1.327-1.061-.3-3.622-2.2-3.465-.766-5.686.3-6.376.464-.299 1.082-.167 1.384.296.296.459.17 1.069-.28 1.373-.153.111-1.334 1.086.284 3.635 2.2 3.463.766 5.684-.3 6.374-.168.108-.357.16-.543.16z"/><path d="m35.499 11.998c-.328 0-.648-.161-.841-.456-.3-.464-.167-1.083.296-1.384.125-.09 1.327-1.061-.3-3.622-2.2-3.465-.766-5.686.3-6.376.463-.299 1.082-.167 1.384.296.296.459.17 1.069-.28 1.373-.153.111-1.334 1.086.284 3.635 2.2 3.463.766 5.684-.3 6.374-.168.108-.356.16-.543.16z"/><path d="m37.5 48.002c-.329 0-.65-.162-.842-.459l-9-13.986c-.299-.464-.165-1.083.3-1.382.464-.298 1.083-.164 1.382.3l9 13.986c.299.464.165 1.083-.3 1.382-.167.107-.354.159-.54.159z"/><path d="m19.498 48.002c-.186 0-.373-.052-.54-.159-.465-.299-.599-.918-.3-1.382l9-13.986c.3-.464.919-.598 1.382-.3.465.299.599.918.3 1.382l-9 13.986c-.192.297-.513.459-.842.459z"/><path d="m22.983 42.598c-.327 0-.647-.16-.84-.455l-2.983-4.59c-.301-.463-.169-1.082.294-1.384.462-.302 1.082-.169 1.384.294l2.983 4.59c.301.463.169 1.082-.294 1.384-.168.109-.357.161-.544.161z"/><path d="m13.498 48.008c-.187 0-.376-.052-.544-.161-.463-.302-.595-.921-.294-1.384l6.5-10c.303-.463.922-.596 1.384-.294.463.302.595.921.294 1.384l-6.5 10c-.192.295-.513.455-.84.455z"/><path d="m15.501 33.99c-1.654 0-3-1.346-3-3s1.346-3 3-3 3 1.346 3 3-1.346 3-3 3zm0-4c-.552 0-1 .448-1 1s.448 1 1 1 1-.448 1-1-.448-1-1-1z"/><path d="m37.499 48.008h-24c-.553 0-1-.447-1-1s.447-1 1-1h24c.553 0 1 .447 1 1s-.447 1-1 1z"/></svg>