<svg id="Flat" height="512" viewBox="0 0 512 512" width="512" xmlns="http://www.w3.org/2000/svg"><path d="m440 208c0-101.62-82.379-184-184-184a184.027 184.027 0 0 0 -80 349.742l59.418 106.077a16 16 0 0 0 13.959 8.181h13.246a16 16 0 0 0 13.959-8.181l59.418-106.077a184.01 184.01 0 0 0 104-165.742z" fill="#eb423f"/><circle cx="256" cy="208" fill="#e9eef2" r="136"/><g fill="#3397e8"><path d="m312 256h-32a8 8 0 0 1 0-16h32a24.028 24.028 0 0 0 24-24 8.009 8.009 0 0 0 -8-8h-32a8 8 0 0 1 0-16h32a24.028 24.028 0 0 1 24 24 40.045 40.045 0 0 1 -40 40z"/><path d="m296 192h-128a8 8 0 0 0 -8 8v32a72 72 0 0 0 144 0v-32a8 8 0 0 0 -8-8z"/><path d="m200 176a8 8 0 0 1 -8-8v-8a24.027 24.027 0 0 1 24-24 8.009 8.009 0 0 0 8-8v-8a8 8 0 0 1 16 0v8a24.027 24.027 0 0 1 -24 24 8.009 8.009 0 0 0 -8 8v8a8 8 0 0 1 -8 8z"/><path d="m248 176a8 8 0 0 1 -8-8v-8a24.027 24.027 0 0 1 24-24 8.009 8.009 0 0 0 8-8v-8a8 8 0 0 1 16 0v8a24.027 24.027 0 0 1 -24 24 8.009 8.009 0 0 0 -8 8v8a8 8 0 0 1 -8 8z"/></g></svg>