<svg id="Solid" height="512" viewBox="0 0 512 512" width="512" xmlns="http://www.w3.org/2000/svg"><path d="m184 232a56 56 0 0 0 112 0v-24h-112z"/><path d="m312 208v24a72.383 72.383 0 0 1 -.455 8h8.455a24.027 24.027 0 0 0 24-24 8.009 8.009 0 0 0 -8-8z"/><path d="m256 32a176.025 176.025 0 0 0 -76.517 334.54 7.992 7.992 0 0 1 3.5 3.293l59.417 106.077a8.009 8.009 0 0 0 6.98 4.09h13.246a8.008 8.008 0 0 0 6.98-4.091l59.418-106.076a7.992 7.992 0 0 1 3.5-3.293 176.012 176.012 0 0 0 99.476-158.54c0-97.046-78.953-176-176-176zm0 320c-79.4 0-144-64.6-144-144s64.6-144 144-144 144 64.6 144 144-64.6 144-144 144z"/><path d="m256 80a128 128 0 1 0 128 128 128.144 128.144 0 0 0 -128-128zm16 56a8.009 8.009 0 0 0 8-8v-8a8 8 0 0 1 16 0v8a24.027 24.027 0 0 1 -24 24 8.009 8.009 0 0 0 -8 8v8a8 8 0 0 1 -16 0v-8a24.027 24.027 0 0 1 24-24zm-72 24a24.027 24.027 0 0 1 24-24 8.009 8.009 0 0 0 8-8v-8a8 8 0 0 1 16 0v8a24.027 24.027 0 0 1 -24 24 8.009 8.009 0 0 0 -8 8v8a8 8 0 0 1 -16 0zm160 56a40.045 40.045 0 0 1 -40 40h-12.128a71.994 71.994 0 0 1 -139.872-24v-32a8 8 0 0 1 8-8h160a24.027 24.027 0 0 1 24 24z"/></svg>