<svg id="Gradient" height="512" viewBox="0 0 512 512" width="512" xmlns="http://www.w3.org/2000/svg" xmlns:xlink="http://www.w3.org/1999/xlink"><linearGradient id="linear-gradient" gradientUnits="userSpaceOnUse" x1="256" x2="256" y1="496" y2="16"><stop offset="0" stop-color="#12c2e9"/><stop offset=".5" stop-color="#c471ed"/><stop offset="1" stop-color="#f64f59"/></linearGradient><path d="m170.236 379.823 58.2 103.906a24.026 24.026 0 0 0 20.941 12.271h13.246a24.026 24.026 0 0 0 20.939-12.271l58.2-103.906a192.007 192.007 0 0 0 106.238-171.823c0-105.869-86.13-192-192-192a192.024 192.024 0 0 0 -85.764 363.823zm-90.228-173.552a175.6 175.6 0 0 1 175.992-174.271c97.047 0 176 78.954 176 176a176.012 176.012 0 0 1 -99.483 158.54 7.992 7.992 0 0 0 -3.5 3.293l-59.417 106.076a8.008 8.008 0 0 1 -6.98 4.091h-13.243a8.009 8.009 0 0 1 -6.98-4.09l-59.418-106.077a7.992 7.992 0 0 0 -3.5-3.293 176.009 176.009 0 0 1 -99.471-160.269zm175.992 145.729c79.4 0 144-64.6 144-144s-64.6-144-144-144-144 64.6-144 144 64.6 144 144 144zm0-272a128 128 0 1 1 -128 128 128.144 128.144 0 0 1 128-128zm-16 224a72.114 72.114 0 0 0 67.872-48h12.128a40.045 40.045 0 0 0 40-40 24.027 24.027 0 0 0 -24-24h-160a8 8 0 0 0 -8 8v32a72.081 72.081 0 0 0 72 72zm104-88a24.027 24.027 0 0 1 -24 24h-8.455a72.383 72.383 0 0 0 .455-8v-24h24a8.009 8.009 0 0 1 8 8zm-160-8h112v24a56 56 0 0 1 -112 0zm16-40v-8a24.027 24.027 0 0 1 24-24 8.009 8.009 0 0 0 8-8v-8a8 8 0 0 1 16 0v8a24.027 24.027 0 0 1 -24 24 8.009 8.009 0 0 0 -8 8v8a8 8 0 0 1 -16 0zm48-8a24.027 24.027 0 0 1 24-24 8.009 8.009 0 0 0 8-8v-8a8 8 0 0 1 16 0v8a24.027 24.027 0 0 1 -24 24 8.009 8.009 0 0 0 -8 8v8a8 8 0 0 1 -16 0z" fill="url(#linear-gradient)"/></svg>